<svg width="40" height="40" viewBox="0 0 40 40" fill="none" xmlns="http://www.w3.org/2000/svg">
<path d="M37.4843 21.2211C38.1 20.5124 38.6043 19.6759 39.0609 18.6063C39.1704 18.348 39.1496 18.0524 39.0035 17.8124C38.8574 17.5724 38.6043 17.4185 38.3243 17.3976C37.3774 17.328 36.6278 17.0472 35.7887 16.6437C33.0643 15.3585 31.3043 12.5811 31.3043 9.56891C31.3043 8.66456 31.5643 7.64283 32.0983 6.44457C32.2139 6.1863 32.1957 5.88717 32.0504 5.64457C31.9052 5.40109 31.6513 5.24457 31.3678 5.2237C31.1861 5.20978 30.92 5.21326 30.6817 5.21761L30.4348 5.22109C27.4243 5.22109 24.6339 6.63848 22.8322 9.01848C21.9052 8.81065 20.9565 8.69935 20 8.69935C13.7974 8.69935 8.43913 13.1515 7.22522 19.1646C3.19043 19.4741 0 22.848 0 26.9602C0 31.275 3.5113 34.7863 7.82609 34.7863H32.1739C36.4887 34.7863 40 31.275 40 26.9602C40 24.7715 39.073 22.6924 37.4843 21.2211ZM23.9087 10.475C25.2861 8.38804 27.5513 7.09935 30.027 6.97152C29.7174 7.90283 29.5652 8.76022 29.5652 9.56891C29.5652 13.2507 31.7165 16.6446 35.04 18.2133C35.6157 18.4898 36.24 18.7585 36.967 18.9376C36.58 19.6289 36.1461 20.1741 35.6209 20.642C34.1965 21.9133 32.3548 22.6124 30.4348 22.6124C29.2548 22.6124 28.1322 22.3602 27.093 21.8611C24.3687 20.5759 22.6087 17.7985 22.6087 14.7863C22.6087 13.2446 23.0574 11.7541 23.9087 10.475ZM32.1739 33.0472H7.82609C4.46957 33.0472 1.73913 30.3167 1.73913 26.9602C1.73913 23.6037 4.46956 20.8733 7.78261 20.8654C7.79217 20.8672 7.80261 20.8672 7.81304 20.868C7.81739 20.8689 7.82087 20.8715 7.82522 20.8724C7.86522 20.8785 7.90522 20.8811 7.94522 20.8811C7.94609 20.8811 7.94783 20.8811 7.9487 20.8811C8.40174 20.8811 8.86783 20.9402 9.33478 21.0576C9.3687 21.0724 9.40435 21.0846 9.44087 21.0941C10.9713 21.5115 12.3052 22.5411 13.1 23.9167C13.34 24.3324 13.8713 24.475 14.2878 24.2341C14.7035 23.9941 14.8461 23.462 14.6052 23.0463C13.6043 21.3141 11.9391 20.0098 10.0217 19.4515C9.98174 19.4333 9.94 19.4185 9.89652 19.4072C9.59217 19.3254 9.28783 19.2637 8.98348 19.2202C10.1452 14.1541 14.7235 10.4385 20.0009 10.4385C20.62 10.4385 21.2357 10.495 21.8426 10.5967C21.2052 11.8941 20.8696 13.3202 20.8696 14.7863C20.8696 18.468 23.0209 21.862 26.3452 23.4306C27.6157 24.042 28.9913 24.3515 30.4348 24.3515C32.533 24.3515 34.553 23.6628 36.2026 22.408C37.5 23.5567 38.2609 25.2141 38.2609 26.9602C38.2609 30.3167 35.5304 33.0472 32.1739 33.0472Z" fill="#AAAAAA"/>
</svg>
